<svg xmlns="http://www.w3.org/2000/svg" width="20px" height="20px" viewBox="0 0 20 20"><path d="M2.125 11.125H7.75C8.371 11.125 8.875 10.621 8.875 10V2.125C8.875 1.504 8.371 1 7.75 1H2.125C1.504 1 1 1.504 1 2.125V10C1 10.621 1.504 11.125 2.125 11.125ZM2.125 19H7.75C8.371 19 8.875 18.496 8.875 17.875V14.5C8.875 13.879 8.371 13.375 7.75 13.375H2.125C1.504 13.375 1 13.879 1 14.5V17.875C1 18.496 1.504 19 2.125 19ZM17.875 7.75H12.25C11.629 7.75 11.125 7.246 11.125 6.625V2.125C11.125 1.504 11.629 1 12.25 1H17.875C18.496 1 19 1.504 19 2.125V6.625C19 7.246 18.496 7.75 17.875 7.75ZM12.25 19H17.875C18.496 19 19 18.496 19 17.875V11.125C19 10.504 18.496 10 17.875 10H12.25C11.629 10 11.125 10.504 11.125 11.125V17.875C11.125 18.496 11.629 19 12.25 19Z"/></svg>