<svg xmlns="http://www.w3.org/2000/svg" width="20px" height="20px" viewBox="0 0 16 16"><g id="assets"><path id="assets-ico" fill-rule="evenodd" clip-rule="evenodd" d="M14.0667 1H1.93333C1.41787 1 1 1.41787 1 1.93333V14.0667C1 14.5821 1.41787 15 1.93333 15H14.0667C14.5821 15 15 14.5821 15 14.0667V1.93333C15 1.41787 14.5821 1 14.0667 1ZM2.75 12.375L4.04729 9.99664C4.35835 9.42636 5.12206 9.29939 5.60091 9.73833L5.78838 9.91018C6.21178 10.2983 6.87435 10.2508 7.23806 9.80626L8.61127 8.12789C9.02619 7.62076 9.80857 7.64304 10.194 8.17295L13.25 12.375H2.75ZM6.25 4.9375C6.25 5.66237 5.66237 6.25 4.9375 6.25C4.21263 6.25 3.625 5.66237 3.625 4.9375C3.625 4.21263 4.21263 3.625 4.9375 3.625C5.66237 3.625 6.25 4.21263 6.25 4.9375Z"/></g></svg>