<svg xmlns="http://www.w3.org/2000/svg" width="12px" height="12px" viewBox="0 0 12 12" fill="none"><path d="M.75.5H4.5c.111 0 .165.035.19.06.025.025.06.079.06.19V4.5c0 .111-.035.165-.06.19-.025.025-.079.06-.19.06H.75c-.111 0-.165-.035-.19-.06C.535 4.665.5 4.611.5 4.5V.75C.5.639.535.585.56.56.585.535.639.5.75.5z" fill="#5D2DE6" stroke="#5D2DE6"/><path d="M11.25 0H7.5c-.45 0-.75.3-.75.75V4.5c0 .45.3.75.75.75h3.75c.45 0 .75-.3.75-.75V.75c0-.45-.3-.75-.75-.75zM4.5 6.75H.75c-.45 0-.75.3-.75.75v3.75c0 .45.3.75.75.75H4.5c.45 0 .75-.3.75-.75V7.5c0-.45-.3-.75-.75-.75zM11.25 6.75H7.5c-.45 0-.75.3-.75.75v3.75c0 .45.3.75.75.75h3.75c.45 0 .75-.3.75-.75V7.5c0-.45-.3-.75-.75-.75z" fill="#5D2DE6"/></svg>