<svg xmlns="http://www.w3.org/2000/svg" width="1em" height="1em" viewBox="0 0 20 20"><path d="M17.448 7.828c.443 0 .836-.15 1.12-.433.283-.283.432-.676.432-1.12V2.553c0-.443-.149-.836-.432-1.12C18.284 1.15 17.89 1 17.448 1H2.552c-.443 0-.836.149-1.12.432C1.15 1.716 1 2.11 1 2.552v3.724c0 .443.149.836.432 1.12.284.283.677.432 1.12.432.443 0 .836-.15 1.12-.433.282-.283.431-.676.431-1.12V4.104h4.345v11.794H6.276c-.443 0-.836.149-1.12.432-.283.283-.432.676-.432 1.12 0 .442.15.835.432 1.119.284.283.677.432 1.12.432h7.448c.443 0 .836-.149 1.12-.432.283-.284.432-.677.432-1.12 0-.443-.15-.836-.432-1.12-.284-.282-.677-.431-1.12-.431h-2.172V4.103h4.345v2.173c0 .443.149.836.432 1.12.283.283.676.432 1.12.432z"/></svg>